<svg viewBox="0 0 64 64" fill="none" xmlns="http://www.w3.org/2000/svg">
  <path d="M16 48L24 32L32 40L40 24L48 32" stroke="currentColor" stroke-width="1.5" fill="none"/>
  <circle cx="24" cy="32" r="2" fill="currentColor"/>
  <circle cx="32" cy="40" r="2" fill="currentColor"/>
  <circle cx="40" cy="24" r="2" fill="currentColor"/>
  <circle cx="48" cy="32" r="2" fill="currentColor"/>
  <path d="M12 52H52" stroke="currentColor" stroke-width="1.5"/>
  <path d="M12 12V52" stroke="currentColor" stroke-width="1.5"/>
  <line x1="16" y1="52" x2="16" y2="48" stroke="currentColor" stroke-width="1" opacity="0.6"/>
  <line x1="24" y1="52" x2="24" y2="48" stroke="currentColor" stroke-width="1" opacity="0.6"/>
  <line x1="32" y1="52" x2="32" y2="48" stroke="currentColor" stroke-width="1" opacity="0.6"/>
  <line x1="40" y1="52" x2="40" y2="48" stroke="currentColor" stroke-width="1" opacity="0.6"/>
  <line x1="48" y1="52" x2="48" y2="48" stroke="currentColor" stroke-width="1" opacity="0.6"/>
  <line x1="12" y1="44" x2="16" y2="44" stroke="currentColor" stroke-width="1" opacity="0.6"/>
  <line x1="12" y1="36" x2="16" y2="36" stroke="currentColor" stroke-width="1" opacity="0.6"/>
  <line x1="12" y1="28" x2="16" y2="28" stroke="currentColor" stroke-width="1" opacity="0.6"/>
  <line x1="12" y1="20" x2="16" y2="20" stroke="currentColor" stroke-width="1" opacity="0.6"/>
</svg>