<svg viewBox="0 0 64 64" fill="none" xmlns="http://www.w3.org/2000/svg">
  <path d="M8 32C8 18.7 18.7 8 32 8C45.3 8 56 18.7 56 32" stroke="currentColor" stroke-width="1.5" fill="none"/>
  <path d="M56 32C56 45.3 45.3 56 32 56C18.7 56 8 45.3 8 32" stroke="currentColor" stroke-width="1.5" fill="none" opacity="0.6"/>
  <circle cx="32" cy="32" r="8" stroke="currentColor" stroke-width="1.5" fill="none"/>
  <path d="M24 24L20 20M40 24L44 20M40 40L44 44M24 40L20 44" stroke="currentColor" stroke-width="1"/>
  <line x1="32" y1="16" x2="32" y2="12" stroke="currentColor" stroke-width="1"/>
  <line x1="48" y1="32" x2="52" y2="32" stroke="currentColor" stroke-width="1"/>
  <line x1="32" y1="48" x2="32" y2="52" stroke="currentColor" stroke-width="1"/>
  <line x1="16" y1="32" x2="12" y2="32" stroke="currentColor" stroke-width="1"/>
  <circle cx="32" cy="32" r="2" fill="currentColor"/>
</svg>