<!-- Icônes SVG harmonisées pour Nouvelle Rive -->
<svg style="display: none;" xmlns="http://www.w3.org/2000/svg">
  <defs>
    <!-- Icône Temps fragmenté -->
    <symbol id="icon-time-fragmented" viewBox="0 0 24 24" fill="none" stroke="currentColor" stroke-width="2" stroke-linecap="round" stroke-linejoin="round">
      <circle cx="12" cy="12" r="10"/>
      <path d="M12 6v6l4 2"/>
      <path d="M8 8l-2-2M16 8l2-2M8 16l-2 2M16 16l2 2" opacity="0.5"/>
    </symbol>

    <!-- Icône Données dispersées -->
    <symbol id="icon-data-dispersed" viewBox="0 0 24 24" fill="none" stroke="currentColor" stroke-width="2" stroke-linecap="round" stroke-linejoin="round">
      <circle cx="8" cy="8" r="1"/>
      <circle cx="16" cy="8" r="1"/>
      <circle cx="8" cy="16" r="1"/>
      <circle cx="16" cy="16" r="1"/>
      <circle cx="12" cy="12" r="1"/>
      <path d="M8 8l4 4M16 8l-4 4M8 16l4-4M16 16l-4-4" opacity="0.3" stroke-dasharray="2,2"/>
    </symbol>

    <!-- Icône Opportunités invisibles -->
    <symbol id="icon-opportunities-hidden" viewBox="0 0 24 24" fill="none" stroke="currentColor" stroke-width="2" stroke-linecap="round" stroke-linejoin="round">
      <path d="M1 12s4-8 11-8 11 8 11 8-4 8-11 8-11-8-11-8z"/>
      <circle cx="12" cy="12" r="3"/>
      <path d="M3 3l18 18" opacity="0.6"/>
    </symbol>

    <!-- Icône Diagnostic -->
    <symbol id="icon-diagnostic" viewBox="0 0 24 24" fill="none" stroke="currentColor" stroke-width="2" stroke-linecap="round" stroke-linejoin="round">
      <circle cx="11" cy="11" r="8"/>
      <path d="M21 21l-4.35-4.35"/>
      <circle cx="11" cy="11" r="3" opacity="0.3"/>
    </symbol>

    <!-- Icône Conception -->
    <symbol id="icon-conception" viewBox="0 0 24 24" fill="none" stroke="currentColor" stroke-width="2" stroke-linecap="round" stroke-linejoin="round">
      <rect x="3" y="3" width="18" height="18" rx="2" ry="2"/>
      <rect x="7" y="7" width="3" height="9"/>
      <rect x="14" y="7" width="3" height="5"/>
      <rect x="14" y="16" width="3" height="1"/>
    </symbol>

    <!-- Icône Déploiement -->
    <symbol id="icon-deployment" viewBox="0 0 24 24" fill="none" stroke="currentColor" stroke-width="2" stroke-linecap="round" stroke-linejoin="round">
      <polygon points="12,2 22,8.5 22,15.5 12,22 2,15.5 2,8.5 12,2"/>
      <path d="M12 22V12"/>
      <path d="M22 8.5L12 15L2 8.5"/>
      <circle cx="12" cy="8" r="2" opacity="0.5"/>
    </symbol>

    <!-- Icône Avocats -->
    <symbol id="icon-lawyers" viewBox="0 0 24 24" fill="none" stroke="currentColor" stroke-width="2" stroke-linecap="round" stroke-linejoin="round">
      <path d="M14 2H6a2 2 0 0 0-2 2v16a2 2 0 0 0 2 2h12a2 2 0 0 0 2-2V8z"/>
      <polyline points="14,2 14,8 20,8"/>
      <line x1="16" y1="13" x2="8" y2="13"/>
      <line x1="16" y1="17" x2="8" y2="17"/>
      <polyline points="10,9 9,9 8,9"/>
    </symbol>

    <!-- Icône Tourisme -->
    <symbol id="icon-tourism" viewBox="0 0 24 24" fill="none" stroke="currentColor" stroke-width="2" stroke-linecap="round" stroke-linejoin="round">
      <path d="M21 10c0 7-9 13-9 13s-9-6-9-13a9 9 0 0 1 18 0z"/>
      <circle cx="12" cy="10" r="3"/>
      <path d="M8 21h8" opacity="0.5"/>
    </symbol>

    <!-- Icône Entreprises -->
    <symbol id="icon-enterprises" viewBox="0 0 24 24" fill="none" stroke="currentColor" stroke-width="2" stroke-linecap="round" stroke-linejoin="round">
      <rect x="2" y="3" width="20" height="14" rx="2" ry="2"/>
      <line x1="8" y1="21" x2="16" y2="21"/>
      <line x1="12" y1="17" x2="12" y2="21"/>
      <rect x="6" y="7" width="4" height="2" opacity="0.5"/>
      <rect x="14" y="7" width="4" height="2" opacity="0.5"/>
      <rect x="6" y="11" width="4" height="2" opacity="0.3"/>
      <rect x="14" y="11" width="4" height="2" opacity="0.3"/>
    </symbol>

    <!-- Icône Innovation -->
    <symbol id="icon-innovation" viewBox="0 0 24 24" fill="none" stroke="currentColor" stroke-width="2" stroke-linecap="round" stroke-linejoin="round">
      <path d="M9 12l2 2 4-4"/>
      <path d="M21 12c.552 0 1-.449 1-1s-.448-1-1-1-1 .449-1 1 .448 1 1 1z"/>
      <path d="M3 12c.552 0 1-.449 1-1s-.448-1-1-1-1 .449-1 1 .448 1 1 1z"/>
      <path d="M12 21c.552 0 1-.449 1-1s-.448-1-1-1-1 .449-1 1 .448 1 1 1z"/>
      <path d="M12 3c.552 0 1-.449 1-1s-.448-1-1-1-1 .449-1 1 .448 1 1 1z"/>
      <circle cx="12" cy="12" r="7" opacity="0.2"/>
    </symbol>

    <!-- Icône Transparence -->
    <symbol id="icon-transparency" viewBox="0 0 24 24" fill="none" stroke="currentColor" stroke-width="2" stroke-linecap="round" stroke-linejoin="round">
      <path d="M1 12s4-8 11-8 11 8 11 8-4 8-11 8-11-8-11-8z"/>
      <circle cx="12" cy="12" r="3"/>
      <rect x="8" y="8" width="8" height="8" rx="1" opacity="0.2"/>
    </symbol>

    <!-- Icône Prototype -->
    <symbol id="icon-prototype" viewBox="0 0 24 24" fill="none" stroke="currentColor" stroke-width="2" stroke-linecap="round" stroke-linejoin="round">
      <polygon points="12 2 2 7 12 12 22 7 12 2"/>
      <polyline points="2,17 12,22 22,17"/>
      <polyline points="2,12 12,17 22,12"/>
      <circle cx="12" cy="7" r="1" opacity="0.6"/>
    </symbol>

    <!-- Icône Technologies -->
    <symbol id="icon-technologies" viewBox="0 0 24 24" fill="none" stroke="currentColor" stroke-width="2" stroke-linecap="round" stroke-linejoin="round">
      <rect x="2" y="6" width="20" height="8" rx="1"/>
      <path d="M6 10h.01"/>
      <path d="M10 10h.01"/>
      <path d="M14 10h4"/>
      <circle cx="12" cy="2" r="1" opacity="0.5"/>
      <circle cx="5" cy="22" r="1" opacity="0.5"/>
      <circle cx="19" cy="22" r="1" opacity="0.5"/>
    </symbol>

    <!-- Icône Contact -->
    <symbol id="icon-contact" viewBox="0 0 24 24" fill="none" stroke="currentColor" stroke-width="2" stroke-linecap="round" stroke-linejoin="round">
      <path d="M4 4h16c1.1 0 2 .9 2 2v12c0 1.1-.9 2-2 2H4c-1.1 0-2-.9-2-2V6c0-1.1.9-2 2-2z"/>
      <polyline points="22,6 12,13 2,6"/>
      <circle cx="8" cy="10" r="1" opacity="0.5"/>
      <circle cx="16" cy="10" r="1" opacity="0.5"/>
    </symbol>

    <!-- Icône Calendrier -->
    <symbol id="icon-calendar" viewBox="0 0 24 24" fill="none" stroke="currentColor" stroke-width="2" stroke-linecap="round" stroke-linejoin="round">
      <rect x="3" y="4" width="18" height="18" rx="2" ry="2"/>
      <line x1="16" y1="2" x2="16" y2="6"/>
      <line x1="8" y1="2" x2="8" y2="6"/>
      <line x1="3" y1="10" x2="21" y2="10"/>
      <rect x="7" y="14" width="2" height="2" opacity="0.6"/>
      <rect x="15" y="14" width="2" height="2" opacity="0.3"/>
    </symbol>

    <!-- Icône Réussite -->
    <symbol id="icon-success" viewBox="0 0 24 24" fill="none" stroke="currentColor" stroke-width="2" stroke-linecap="round" stroke-linejoin="round">
      <path d="M22 11.08V12a10 10 0 1 1-5.93-9.14"/>
      <polyline points="22,4 12,14.01 9,11.01"/>
      <circle cx="12" cy="12" r="6" opacity="0.2"/>
    </symbol>

    <!-- Icône Menu (Hamburger) -->
    <symbol id="icon-menu" viewBox="0 0 24 24" fill="none" stroke="currentColor" stroke-width="2" stroke-linecap="round" stroke-linejoin="round">
      <line x1="3" y1="6" x2="21" y2="6"/>
      <line x1="3" y1="12" x2="21" y2="12"/>
      <line x1="3" y1="18" x2="21" y2="18"/>
    </symbol>

    <!-- Icône Fermer -->
    <symbol id="icon-close" viewBox="0 0 24 24" fill="none" stroke="currentColor" stroke-width="2" stroke-linecap="round" stroke-linejoin="round">
      <line x1="18" y1="6" x2="6" y2="18"/>
      <line x1="6" y1="6" x2="18" y2="18"/>
    </symbol>

    <!-- Icône Flèche vers le bas -->
    <symbol id="icon-arrow-down" viewBox="0 0 24 24" fill="none" stroke="currentColor" stroke-width="2" stroke-linecap="round" stroke-linejoin="round">
      <line x1="12" y1="5" x2="12" y2="19"/>
      <polyline points="19,12 12,19 5,12"/>
    </symbol>

    <!-- Icône Flèche vers la droite -->
    <symbol id="icon-arrow-right" viewBox="0 0 24 24" fill="none" stroke="currentColor" stroke-width="2" stroke-linecap="round" stroke-linejoin="round">
      <line x1="5" y1="12" x2="19" y2="12"/>
      <polyline points="12,5 19,12 12,19"/>
    </symbol>

    <!-- Icône Étoile -->
    <symbol id="icon-star" viewBox="0 0 24 24" fill="none" stroke="currentColor" stroke-width="2" stroke-linecap="round" stroke-linejoin="round">
      <polygon points="12,2 15.09,8.26 22,9.27 17,14.14 18.18,21.02 12,17.77 5.82,21.02 7,14.14 2,9.27 8.91,8.26 12,2"/>
      <circle cx="12" cy="12" r="4" opacity="0.2"/>
    </symbol>
  </defs>
</svg>