<svg viewBox="0 0 64 64" fill="none" xmlns="http://www.w3.org/2000/svg">
  <!-- Forme hexagonale rigide (symbolise la rigidité) -->
  <path d="M32 8L44 16L44 32L32 40L20 32L20 16Z" stroke="currentColor" stroke-width="1.5" fill="none"/>

  <!-- Lignes internes de contrainte -->
  <line x1="20" y1="16" x2="44" y2="32" stroke="currentColor" stroke-width="1" opacity="0.4"/>
  <line x1="44" y1="16" x2="20" y2="32" stroke="currentColor" stroke-width="1" opacity="0.4"/>
  <line x1="32" y1="8" x2="32" y2="40" stroke="currentColor" stroke-width="1" opacity="0.4"/>

  <!-- Centre bloqué -->
  <circle cx="32" cy="24" r="3" stroke="currentColor" stroke-width="1.5" fill="none"/>
  <circle cx="32" cy="24" r="1" fill="currentColor"/>

  <!-- Flèches bloquées qui tentent de sortir -->
  <path d="M8 24L12 24M10 22L12 24L10 26" stroke="currentColor" stroke-width="1" opacity="0.6"/>
  <path d="M52 24L56 24M54 22L56 24L54 26" stroke="currentColor" stroke-width="1" opacity="0.6"/>
  <path d="M32 8L32 4M30 6L32 4L34 6" stroke="currentColor" stroke-width="1" opacity="0.6"/>

  <!-- Verrous symboliques -->
  <rect x="38" y="34" width="4" height="6" stroke="currentColor" stroke-width="1" fill="none" opacity="0.5"/>
  <path d="M40 34C40 32.9 40.9 32 42 32C43.1 32 44 32.9 44 34" stroke="currentColor" stroke-width="1" fill="none" opacity="0.5"/>

  <!-- Chaînes -->
  <circle cx="16" cy="48" r="2" stroke="currentColor" stroke-width="1" fill="none" opacity="0.4"/>
  <circle cx="20" cy="52" r="2" stroke="currentColor" stroke-width="1" fill="none" opacity="0.4"/>
  <line x1="17.4" y1="49.4" x2="18.6" y2="50.6" stroke="currentColor" stroke-width="1" opacity="0.4"/>
</svg>