<svg viewBox="0 0 64 64" fill="none" xmlns="http://www.w3.org/2000/svg">
  <!-- Spirale de transformation principale -->
  <path d="M32 8C40 8 48 12 52 20C56 28 56 36 52 44C48 52 40 56 32 56C24 56 16 52 12 44C8 36 8 28 12 20C14 16 18 12 24 10" stroke="currentColor" stroke-width="1.5" fill="none"/>

  <!-- Flèche de direction -->
  <path d="M20 12L24 10L22 14" stroke="currentColor" stroke-width="1.5" fill="none"/>

  <!-- Éléments en transformation (avant) -->
  <rect x="18" y="18" width="6" height="6" stroke="currentColor" stroke-width="1" fill="none" opacity="0.5"/>
  <rect x="40" y="18" width="6" height="6" stroke="currentColor" stroke-width="1" fill="none" opacity="0.5"/>

  <!-- Éléments transformés (après) -->
  <circle cx="21" cy="45" r="3" stroke="currentColor" stroke-width="1" fill="none"/>
  <circle cx="43" cy="45" r="3" stroke="currentColor" stroke-width="1" fill="none"/>

  <!-- Trajectoires de transformation -->
  <path d="M21 24L21 42" stroke="currentColor" stroke-width="1" opacity="0.4" stroke-dasharray="2,2"/>
  <path d="M43 24L43 42" stroke="currentColor" stroke-width="1" opacity="0.4" stroke-dasharray="2,2"/>

  <!-- Centre de transformation -->
  <circle cx="32" cy="32" r="4" stroke="currentColor" stroke-width="1.5" fill="none"/>
  <circle cx="32" cy="32" r="1.5" fill="currentColor"/>

  <!-- Ondes de changement -->
  <circle cx="32" cy="32" r="8" stroke="currentColor" stroke-width="1" fill="none" opacity="0.3"/>
  <circle cx="32" cy="32" r="12" stroke="currentColor" stroke-width="1" fill="none" opacity="0.2"/>
  <circle cx="32" cy="32" r="16" stroke="currentColor" stroke-width="1" fill="none" opacity="0.1"/>

  <!-- Particules de changement -->
  <path d="M14 30L16 28L14 26L12 28Z" fill="currentColor" opacity="0.3"/>
  <path d="M52 30L50 28L52 26L54 28Z" fill="currentColor" opacity="0.3"/>
  <path d="M30 14L32 12L34 14L32 16Z" fill="currentColor" opacity="0.3"/>
  <path d="M30 52L32 50L34 52L32 54Z" fill="currentColor" opacity="0.3"/>

  <!-- Flux d'énergie -->
  <path d="M26 26L30 30L26 34" stroke="currentColor" stroke-width="1" fill="none" opacity="0.5"/>
  <path d="M38 26L34 30L38 34" stroke="currentColor" stroke-width="1" fill="none" opacity="0.5"/>

  <!-- Points d'ancrage -->
  <circle cx="8" cy="32" r="1" fill="currentColor" opacity="0.4"/>
  <circle cx="56" cy="32" r="1" fill="currentColor" opacity="0.4"/>
  <circle cx="32" cy="8" r="1" fill="currentColor" opacity="0.4"/>
  <circle cx="32" cy="56" r="1" fill="currentColor" opacity="0.4"/>
</svg>