<svg viewBox="0 0 64 64" fill="none" xmlns="http://www.w3.org/2000/svg">
  <!-- Graphique principal en croissance -->
  <path d="M12 48L20 36L28 40L36 28L44 32L52 16" stroke="currentColor" stroke-width="2" fill="none"/>

  <!-- Points de données -->
  <circle cx="12" cy="48" r="2" fill="currentColor"/>
  <circle cx="20" cy="36" r="2" fill="currentColor"/>
  <circle cx="28" cy="40" r="2" fill="currentColor"/>
  <circle cx="36" cy="28" r="2" fill="currentColor"/>
  <circle cx="44" cy="32" r="2" fill="currentColor"/>
  <circle cx="52" cy="16" r="2" fill="currentColor"/>

  <!-- Axes du graphique -->
  <line x1="8" y1="52" x2="56" y2="52" stroke="currentColor" stroke-width="1.5"/>
  <line x1="8" y1="52" x2="8" y2="12" stroke="currentColor" stroke-width="1.5"/>

  <!-- Flèche de croissance -->
  <path d="M48 16L52 16L52 20" stroke="currentColor" stroke-width="1.5" fill="none"/>

  <!-- Graduations axe X -->
  <line x1="16" y1="52" x2="16" y2="54" stroke="currentColor" stroke-width="1" opacity="0.6"/>
  <line x1="24" y1="52" x2="24" y2="54" stroke="currentColor" stroke-width="1" opacity="0.6"/>
  <line x1="32" y1="52" x2="32" y2="54" stroke="currentColor" stroke-width="1" opacity="0.6"/>
  <line x1="40" y1="52" x2="40" y2="54" stroke="currentColor" stroke-width="1" opacity="0.6"/>
  <line x1="48" y1="52" x2="48" y2="54" stroke="currentColor" stroke-width="1" opacity="0.6"/>

  <!-- Graduations axe Y -->
  <line x1="6" y1="44" x2="8" y2="44" stroke="currentColor" stroke-width="1" opacity="0.6"/>
  <line x1="6" y1="36" x2="8" y2="36" stroke="currentColor" stroke-width="1" opacity="0.6"/>
  <line x1="6" y1="28" x2="8" y2="28" stroke="currentColor" stroke-width="1" opacity="0.6"/>
  <line x1="6" y1="20" x2="8" y2="20" stroke="currentColor" stroke-width="1" opacity="0.6"/>

  <!-- Zone d'amélioration (fond) -->
  <path d="M12 48L20 36L28 40L36 28L44 32L52 16L52 52L12 52Z" stroke="none" fill="currentColor" opacity="0.1"/>

  <!-- Indicateurs de performance -->
  <circle cx="58" cy="20" r="3" stroke="currentColor" stroke-width="1" fill="none" opacity="0.5"/>
  <path d="M56.5 20L57.5 21L59.5 19" stroke="currentColor" stroke-width="1" opacity="0.7"/>
</svg>