<svg viewBox="0 0 64 64" fill="none" xmlns="http://www.w3.org/2000/svg">
  <!-- Horloge principale -->
  <circle cx="32" cy="32" r="24" stroke="currentColor" stroke-width="1.5" fill="none"/>

  <!-- Marques d'heures -->
  <line x1="32" y1="10" x2="32" y2="14" stroke="currentColor" stroke-width="1.5"/>
  <line x1="32" y1="50" x2="32" y2="54" stroke="currentColor" stroke-width="1.5"/>
  <line x1="10" y1="32" x2="14" y2="32" stroke="currentColor" stroke-width="1.5"/>
  <line x1="50" y1="32" x2="54" y2="32" stroke="currentColor" stroke-width="1.5"/>

  <!-- Petites marques -->
  <line x1="44.49" y1="14.51" x2="46.32" y2="16.34" stroke="currentColor" stroke-width="1" opacity="0.6"/>
  <line x1="19.51" y1="14.51" x2="17.68" y2="16.34" stroke="currentColor" stroke-width="1" opacity="0.6"/>
  <line x1="44.49" y1="49.49" x2="46.32" y2="47.66" stroke="currentColor" stroke-width="1" opacity="0.6"/>
  <line x1="19.51" y1="49.49" x2="17.68" y2="47.66" stroke="currentColor" stroke-width="1" opacity="0.6"/>

  <!-- Aiguilles -->
  <line x1="32" y1="32" x2="32" y2="20" stroke="currentColor" stroke-width="2"/>
  <line x1="32" y1="32" x2="42" y2="32" stroke="currentColor" stroke-width="1.5"/>

  <!-- Centre -->
  <circle cx="32" cy="32" r="2" fill="currentColor"/>

  <!-- Sablier miniature pour symboliser le temps perdu -->
  <path d="M48 8L52 8L52 12L48 12Z" stroke="currentColor" stroke-width="1" fill="none" opacity="0.5"/>
  <path d="M48 10L52 10" stroke="currentColor" stroke-width="1" opacity="0.5"/>
  <circle cx="50" cy="9" r="0.5" fill="currentColor" opacity="0.7"/>
</svg>